# xmcd
#
# Track frame offsets: 
#        150
#        12885
#        24381
#        36647
#        49099
#        62654
#        73988
#        87615
#        100053
#        117224
#        130399
#        140565
#        158331
#        170940
#        184156
#        199557
#        215344
#        228326
#        239793
#        251770
#
# Disc length: 3552 seconds
#
# Revision: 1
# Processed by: cddbd v1.5.2PL0 Copyright (c) Steve Scherf et al.
# Submitted via: ExactAudioCopy v1.0b3
#
DISCID=290dde14
DTITLE=Various Artist - Very Best Of Blues Brother Soul Sister [CD2)
DYEAR=2005
DGENRE=Blues
TTITLE0=Percy Sledge - When a man loves a woman
TTITLE1=Etta James - I'd rather go blind
TTITLE2=Albert King - Born under a bad sign
TTITLE3=JR Walker and the All Stars - I'm a road runner
TTITLE4=Otis Redding and Carla Thomas - Tramp
TTITLE5=Sam and Dave - Soul sister brown sugar
TTITLE6=Howlin' Wolf - Smokestack Lightnin'
TTITLE7=Betty Wright - Clean up woman
TTITLE8=Brook Benton - Rainy night in Georgia
TTITLE9=Joe Tex - Show me
TTITLE10=Aretha Franklin - Think
TTITLE11=Muddy Waters - Mannish boy
TTITLE12=Tommy Tucker - High heel sneakers
TTITLE13=Jackie Wilson - I get the sweetest feeling
TTITLE14=Millie Jackson - If loving you is wrong I don't want to be ri
TTITLE14=ght
TTITLE15=Dobie Gray - Drift away
TTITLE16=Billie Holiday - That ole devil called love
TTITLE17=Solomon Burke - If you need me
TTITLE18=Ottis Redding - Sittin' on the dock of the bay
TTITLE19=Nina Simone - Angel of the morning
EXTD=
EXTT0=
EXTT1=
EXTT2=
EXTT3=
EXTT4=
EXTT5=
EXTT6=
EXTT7=
EXTT8=
EXTT9=
EXTT10=
EXTT11=
EXTT12=
EXTT13=
EXTT14=
EXTT15=
EXTT16=
EXTT17=
EXTT18=
EXTT19=
PLAYORDER=
